<?xml version="1.0" encoding="UTF-8" standalone="no"?>
<svg
   version="1.2"
   width="567.45mm"
   height="451.17mm"
   viewBox="0 0 56745 45117"
   preserveAspectRatio="xMidYMid"
   fill-rule="evenodd"
   stroke-width="28.222"
   stroke-linejoin="round"
   xml:space="preserve"
   id="svg1270"
   sodipodi:docname="Fish2.svg"
   inkscape:version="1.2.2 (732a01da63, 2022-12-09, custom)"
   xmlns:inkscape="http://www.inkscape.org/namespaces/inkscape"
   xmlns:sodipodi="http://sodipodi.sourceforge.net/DTD/sodipodi-0.dtd"
   xmlns="http://www.w3.org/2000/svg"
   xmlns:svg="http://www.w3.org/2000/svg"
   xmlns:ooo="http://xml.openoffice.org/svg/export"><sodipodi:namedview
   id="namedview1272"
   pagecolor="#ffffff"
   bordercolor="#000000"
   borderopacity="0.25"
   inkscape:showpageshadow="2"
   inkscape:pageopacity="0.0"
   inkscape:pagecheckerboard="0"
   inkscape:deskcolor="#d1d1d1"
   inkscape:document-units="mm"
   showgrid="false"
   inkscape:zoom="0.48557083"
   inkscape:cx="1062.6668"
   inkscape:cy="852.60475"
   inkscape:window-width="1920"
   inkscape:window-height="1031"
   inkscape:window-x="0"
   inkscape:window-y="25"
   inkscape:window-maximized="1"
   inkscape:current-layer="svg1270" />
 <defs
   class="ClipPathGroup"
   id="defs1121">
  <clipPath
   id="presentation_clip_path"
   clipPathUnits="userSpaceOnUse">
   <rect
   x="0"
   y="0"
   width="56745"
   height="45117"
   id="rect1115" />
  </clipPath>
  <clipPath
   id="presentation_clip_path_shrink"
   clipPathUnits="userSpaceOnUse">
   <rect
   x="56"
   y="45"
   width="56632"
   height="45027"
   id="rect1118" />
  </clipPath>
 </defs>
 <defs
   class="TextShapeIndex"
   id="defs1125">
  <g
   ooo:slide="id1"
   ooo:id-list="id3 id4 id5 id6 id7 id8 id9 id10 id11 id12 id13 id14 id15 id16"
   id="g1123" />
 </defs>
 <defs
   class="EmbeddedBulletChars"
   id="defs1157">
  <g
   id="bullet-char-template-57356"
   transform="scale(0.00048828125,-0.00048828125)">
   <path
   d="M 580,1141 L 1163,571 580,0 -4,571 580,1141 Z"
   id="path1127" />
  </g>
  <g
   id="bullet-char-template-57354"
   transform="scale(0.00048828125,-0.00048828125)">
   <path
   d="M 8,1128 L 1137,1128 1137,0 8,0 8,1128 Z"
   id="path1130" />
  </g>
  <g
   id="bullet-char-template-10146"
   transform="scale(0.00048828125,-0.00048828125)">
   <path
   d="M 174,0 L 602,739 174,1481 1456,739 174,0 Z M 1358,739 L 309,1346 659,739 1358,739 Z"
   id="path1133" />
  </g>
  <g
   id="bullet-char-template-10132"
   transform="scale(0.00048828125,-0.00048828125)">
   <path
   d="M 2015,739 L 1276,0 717,0 1260,543 174,543 174,936 1260,936 717,1481 1274,1481 2015,739 Z"
   id="path1136" />
  </g>
  <g
   id="bullet-char-template-10007"
   transform="scale(0.00048828125,-0.00048828125)">
   <path
   d="M 0,-2 C -7,14 -16,27 -25,37 L 356,567 C 262,823 215,952 215,954 215,979 228,992 255,992 264,992 276,990 289,987 310,991 331,999 354,1012 L 381,999 492,748 772,1049 836,1024 860,1049 C 881,1039 901,1025 922,1006 886,937 835,863 770,784 769,783 710,716 594,584 L 774,223 C 774,196 753,168 711,139 L 727,119 C 717,90 699,76 672,76 641,76 570,178 457,381 L 164,-76 C 142,-110 111,-127 72,-127 30,-127 9,-110 8,-76 1,-67 -2,-52 -2,-32 -2,-23 -1,-13 0,-2 Z"
   id="path1139" />
  </g>
  <g
   id="bullet-char-template-10004"
   transform="scale(0.00048828125,-0.00048828125)">
   <path
   d="M 285,-33 C 182,-33 111,30 74,156 52,228 41,333 41,471 41,549 55,616 82,672 116,743 169,778 240,778 293,778 328,747 346,684 L 369,508 C 377,444 397,411 428,410 L 1163,1116 C 1174,1127 1196,1133 1229,1133 1271,1133 1292,1118 1292,1087 L 1292,965 C 1292,929 1282,901 1262,881 L 442,47 C 390,-6 338,-33 285,-33 Z"
   id="path1142" />
  </g>
  <g
   id="bullet-char-template-9679"
   transform="scale(0.00048828125,-0.00048828125)">
   <path
   d="M 813,0 C 632,0 489,54 383,161 276,268 223,411 223,592 223,773 276,916 383,1023 489,1130 632,1184 813,1184 992,1184 1136,1130 1245,1023 1353,916 1407,772 1407,592 1407,412 1353,268 1245,161 1136,54 992,0 813,0 Z"
   id="path1145" />
  </g>
  <g
   id="bullet-char-template-8226"
   transform="scale(0.00048828125,-0.00048828125)">
   <path
   d="M 346,457 C 273,457 209,483 155,535 101,586 74,649 74,723 74,796 101,859 155,911 209,963 273,989 346,989 419,989 480,963 531,910 582,859 608,796 608,723 608,648 583,586 532,535 482,483 420,457 346,457 Z"
   id="path1148" />
  </g>
  <g
   id="bullet-char-template-8211"
   transform="scale(0.00048828125,-0.00048828125)">
   <path
   d="M -4,459 L 1135,459 1135,606 -4,606 -4,459 Z"
   id="path1151" />
  </g>
  <g
   id="bullet-char-template-61548"
   transform="scale(0.00048828125,-0.00048828125)">
   <path
   d="M 173,740 C 173,903 231,1043 346,1159 462,1274 601,1332 765,1332 928,1332 1067,1274 1183,1159 1299,1043 1357,903 1357,740 1357,577 1299,437 1183,322 1067,206 928,148 765,148 601,148 462,206 346,322 231,437 173,577 173,740 Z"
   id="path1154" />
  </g>
 </defs>
 
 
<g
   inkscape:groupmode="layer"
   id="layer1"
   inkscape:label="Layer 1"><path
     fill="#395511"
     stroke="none"
     d="m 2861,45007 c -58,-64 -125,-162 -148,-217 -57,-135 -53,-444 7,-634 l 48,-155 -113,-152 c -359,-480 -424,-972 -231,-1735 l 59,-229 -85,-138 c -165,-270 -187,-408 -179,-1098 5,-415 -7,-747 -36,-1002 -130,-1153 11,-2326 545,-4543 255,-1059 367,-1736 390,-2357 16,-434 21,-459 109,-649 202,-432 356,-1064 394,-1609 49,-702 379,-1912 784,-2875 178,-423 513,-1080 779,-1526 111,-186 201,-355 201,-374 0,-44 -101,-149 -143,-149 -69,0 -132,60 -182,174 -29,67 -145,250 -258,407 -818,1134 -1381,2491 -1674,4033 -33,171 -79,412 -103,536 -24,124 -82,298 -129,387 -164,308 -569,623 -1024,795 -397,150 -476,203 -667,450 -221,286 -930,1016 -959,986 -35,-37 -134,-392 -181,-649 -40,-220 -64,-570 -65,-901 v -65 c 1,-171 8,-334 21,-468 132,-1293 550,-2607 1413,-4429 577,-1221 1100,-1873 1729,-2159 181,-81 183,-83 197,-212 8,-72 34,-145 57,-164 31,-25 48,-121 62,-358 11,-178 30,-331 44,-339 33,-21 83,-242 83,-374 1,-58 11,-106 24,-106 12,0 37,-85 55,-190 47,-271 240,-958 421,-1502 500,-1501 1261,-3138 2563,-5517 620,-1134 649,-1201 582,-1375 -53,-139 -169,-172 -526,-150 -363,23 -456,-5 -542,-162 -90,-164 -66,-588 71,-1256 244,-1192 485,-2807 486,-3259 4,-1342 337,-2361 1003,-3066 364,-386 752,-626 1269,-783 248,-76 272,-78 1114,-89 605,-7 1272,8 2244,51 2311,104 3166,49 3754,-239 108,-53 369,-219 578,-368 210,-150 476,-327 593,-394 2287,-1316 7935,-2928 10936,-3119 1041,-67 1172,-131 2002,-974 614,-624 715,-692 1047,-714 413,-27 728,133 1270,644 679,640 1117,908 1756,1074 170,45 371,62 923,83 897,32 1343,85 2145,255 838,177 1862,493 2963,915 875,336 1068,396 1873,580 1268,291 2164,623 3500,1297 2420,1219 5116,3100 7425,5181 581,523 1724,1664 2120,2116 1002,1144 1439,1890 1484,2534 2,32 4,64 4,95 v 35 c -4,363 -142,650 -447,944 -887,857 -1054,994 -1304,1077 -74,25 -135,50 -135,56 0,7 71,103 157,214 574,743 656,1376 257,1976 -406,613 -1395,1124 -2522,1305 -260,42 -723,77 -1716,130 -295,16 -695,47 -889,70 -496,57 -1346,121 -2074,155 -745,35 -3588,84 -5080,87 -1553,3 -2212,33 -2434,111 -228,80 -429,258 -517,458 -57,131 -67,214 -86,695 -34,867 -129,1446 -338,2052 -203,588 -433,983 -751,1285 -425,405 -827,439 -1457,122 -297,-150 -476,-278 -694,-501 -414,-420 -656,-883 -821,-1572 -78,-326 -207,-615 -359,-807 -122,-151 -286,-250 -372,-223 -28,9 -230,209 -448,445 -429,466 -1254,1285 -1728,1716 -1883,1714 -3737,2881 -5593,3521 -1006,348 -1394,380 -1654,138 -154,-143 -189,-261 -186,-627 6,-961 540,-2076 1612,-3364 672,-810 1731,-1823 2871,-2749 254,-208 464,-398 465,-424 1,-33 -47,-66 -149,-104 -306,-115 -550,-146 -1373,-174 -843,-30 -1082,-47 -3160,-226 -2294,-197 -3403,-268 -4834,-310 -3202,-94 -5730,255 -7810,1078 -2281,902 -3997,2541 -4336,4142 -74,353 -68,871 15,1194 197,765 679,1526 1665,2630 181,202 1088,1123 2017,2046 2639,2625 2923,2955 3018,3515 27,153 24,186 -18,251 -87,132 -148,135 -560,31 -539,-136 -752,-166 -1166,-166 -646,1 -926,78 -1848,510 -895,420 -1225,560 -1695,715 -649,215 -1189,307 -1820,308 -537,2 -1092,103 -1421,260 -294,140 -471,340 -622,700 -302,722 -798,1634 -1496,2751 -214,342 -422,688 -463,769 -206,406 -423,1045 -780,2294 -152,536 -317,1082 -365,1214 -94,257 -256,569 -303,585 h -6 c -22,-4 -77,-49 -129,-108 z"
     id="path1166"
     style="display:inline" /><path
     fill="rgb(70,138,26)"
     stroke="none"
     d="M 4257,37102 C 4255,35933 4279,35279 4357,34398 4422,33653 4531,32854 4594,32648 4673,32395 4736,32050 4736,31874 4736,31712 4676,31479 4612,31392 4575,31342 4566,31341 4529,31378 4462,31446 4141,32684 3933,33678 3555,35477 3396,37271 3494,38603 3528,39056 3625,39787 3667,39895 3695,39970 3697,39971 3738,39915 3762,39884 3843,39732 3918,39577 4209,38980 4260,38613 4257,37102 Z"
     id="path1173" /><path
     fill="rgb(70,138,26)"
     stroke="none"
     d="M 5477,37082 C 5548,36941 5549,36929 5510,36802 5379,36375 5300,35620 5292,34723 5287,34120 5289,34089 5377,33678 5538,32926 5553,32430 5423,32157 5331,31965 5281,31997 5177,32315 5033,32757 4911,33419 4848,34102 4806,34555 4785,36191 4812,36802 4835,37304 4840,37334 4904,37402 5014,37519 5143,37502 5286,37352 5351,37284 5437,37163 5477,37082 Z"
     id="path1180" /><path
     fill="rgb(70,138,26)"
     stroke="none"
     d="M 6907,35637 C 6975,35524 7033,35226 7031,34991 7030,34847 7007,34749 6924,34539 6774,34160 6712,33835 6712,33416 6712,33149 6701,33048 6665,32979 6570,32794 6285,32393 6259,32409 6218,32434 6149,32693 6104,32987 6051,33335 6052,33837 6106,34313 6192,35053 6280,35308 6543,35576 6721,35758 6823,35775 6907,35637 Z"
     id="path1187" /><path
     fill="rgb(70,138,26)"
     stroke="none"
     d="M 8631,35105 C 8631,34971 8260,34069 7538,32444 7149,31567 7078,31443 7033,31559 7009,31622 7075,32765 7123,33110 7233,33904 7462,34607 7769,35091 8030,35505 8258,35623 8463,35451 8566,35364 8631,35230 8631,35105 Z"
     id="path1194" /><path
     fill="rgb(70,138,26)"
     stroke="none"
     d="M 10607,34831 C 10821,34629 10905,34495 10879,34395 10870,34358 10694,34118 10488,33862 9674,32849 8850,31752 8104,30693 7895,30395 7712,30146 7697,30141 7653,30125 7667,30242 7769,30742 7956,31658 8194,32418 8516,33128 8987,34166 9728,35054 10137,35073 10167,35074 10242,35060 10306,35041 10379,35019 10489,34943 10607,34831 Z"
     id="path1201" /><path
     fill="rgb(70,138,26)"
     stroke="none"
     d="M 12864,33598 C 12864,33557 12747,33420 12509,33184 11336,32020 9923,30521 8791,29238 8551,28966 8477,28899 8447,28923 8402,28961 8510,29205 9086,30362 9871,31938 10517,32939 11223,33672 11570,34031 11744,34126 12023,34105 12113,34098 12253,34061 12343,34020 12565,33919 12864,33676 12864,33598 Z"
     id="path1208" /><path
     fill="rgb(70,138,26)"
     stroke="none"
     d="M 6662,29473 C 6670,29356 6698,29333 7018,29191 7067,29170 7107,29089 7189,28845 7305,28502 7416,28297 7534,28210 7634,28136 7826,28118 7974,28169 L 8094,28211 8024,28128 C 7757,27810 7541,27597 7488,27597 7412,27597 6622,28400 6407,28697 6401,28705 6361,28672 6318,28623 L 6239,28536 6292,28262 C 6535,27000 6901,25924 7396,25014 7488,24844 7778,24372 8039,23966 8625,23056 8764,22787 8701,22686 8691,22670 8526,22804 8325,22992 7723,23557 6732,24433 6435,24664 L 6341,24736 6435,24887 C 6520,25025 6528,25056 6528,25266 6528,25493 6527,25496 6299,25974 5875,26860 5671,27388 5512,28006 5413,28393 5343,28970 5374,29145 5426,29434 5669,29754 5900,29836 5966,29859 6124,29879 6250,29880 6474,29883 6483,29880 6554,29796 6632,29702 6650,29650 6662,29473 Z"
     id="path1215" /><path
     fill="rgb(129,212,26)"
     stroke="none"
     d="M 7446,22574 C 7746,22339 8103,21961 8198,21779 8269,21644 8276,21604 8271,21381 8264,21079 8309,20947 8469,20810 8615,20685 8739,20646 8939,20660 9242,20682 9661,20948 9765,21184 9862,21401 9771,21665 9495,21970 L 9342,22139 9438,22201 C 9490,22236 9540,22264 9550,22264 9559,22264 9700,22138 9862,21984 11673,20268 14365,19260 17704,19047 18303,19009 19779,19010 22052,19050 23485,19076 24141,19076 24888,19050 25937,19014 26012,19002 25862,18884 25746,18792 25257,18591 24618,18370 23906,18124 23584,17971 23284,17734 22941,17462 22685,17059 22685,16788 22685,16498 22953,16304 23532,16178 23870,16104 25006,16104 25479,16178 26526,16341 27646,16671 29723,17428 31971,18248 32752,18457 33871,18541 34339,18576 34922,18552 35678,18466 36639,18357 37560,18085 38414,17658 L 38748,17491 38626,17665 C 38184,18295 37129,18886 35652,19330 35064,19507 35048,19552 35542,19641 37740,20040 39729,20006 41596,19538 43029,19178 44329,18592 45633,17715 45860,17563 46065,17438 46090,17438 46235,17438 46269,17817 46152,18128 46114,18229 46051,18367 46011,18434 45826,18750 45777,19078 45890,19247 46016,19435 46036,19439 47210,19459 49663,19501 51969,19296 53621,18890 53945,18811 54017,18769 54113,18605 54248,18375 54234,18076 54077,17827 53948,17622 53389,17188 52869,16889 52277,16548 51876,16398 50821,16125 47933,15376 46952,14808 46826,13809 46796,13572 46894,13063 46970,13063 46992,13063 47058,13127 47116,13204 47174,13282 47244,13346 47271,13346 47335,13346 47334,13333 47263,13084 47227,12959 47199,12759 47190,12569 47177,12284 47181,12249 47242,12133 47325,11974 47432,11912 47709,11863 48156,11783 48751,11823 49627,11993 50232,12110 50305,12118 50355,12076 50451,11997 50407,11914 50193,11770 49101,11036 47898,10554 46687,10366 46261,10299 45310,10299 44881,10365 44339,10449 43639,10637 43237,10809 43171,10837 43117,10854 43117,10847 43117,10808 43387,10403 43625,10086 44221,9292 44397,9134 45008,8836 45418,8636 45699,8432 45889,8196 46116,7914 46119,7759 45904,7538 45585,7209 45058,7112 44512,7280 43900,7469 43250,7933 42115,8992 L 41692,9387 41593,9310 C 41401,9160 41310,9127 41085,9127 40850,9127 40777,9156 40526,9343 40326,9492 40035,9864 39899,10142 39575,10807 39579,11654 39913,12654 40067,13115 40289,13613 40553,14090 40905,14726 40919,14757 40910,14897 40903,14999 40888,15030 40831,15059 40744,15103 40294,15107 40100,15065 39484,14933 38411,13696 38250,12933 38228,12826 38196,12478 38179,12160 38149,11562 38123,11344 38046,11033 37981,10771 38009,9226 38107,7673 38183,6463 38189,5796 38125,5634 38084,5529 37975,5529 37903,5634 37631,6028 37281,6888 37132,7525 36971,8214 36919,9237 37005,9987 37142,11168 37482,12314 38104,13691 38144,13781 38167,13854 38156,13854 38106,13854 37464,13346 36985,12929 36354,12379 36078,12156 35823,11991 35628,11865 35624,11864 35385,11865 35168,11867 35097,11883 34678,12026 34422,12113 34124,12200 34016,12219 33589,12293 32935,12192 32167,11935 31435,11690 30701,11366 28710,10411 25749,8990 24814,8637 23605,8478 23178,8422 22290,8422 21898,8478 20896,8620 20074,8971 19491,9506 19225,9749 19060,9979 18882,10354 18353,11472 18224,11681 17929,11899 17720,12054 17483,12126 17058,12161 13927,12423 11380,13557 9623,15471 9299,15824 8266,17083 7899,17572 7161,18555 6717,19373 6566,20029 6534,20164 6497,20296 6483,20323 6469,20350 6458,20391 6458,20415 6458,20438 6447,20457 6434,20457 6421,20457 6389,20651 6362,20888 6335,21125 6303,21394 6289,21488 6276,21581 6264,21889 6262,22172 6260,22611 6266,22686 6302,22686 6326,22686 6345,22704 6345,22725 6345,22785 6444,22808 6768,22826 7109,22844 7100,22847 7446,22574 Z"
     id="path1222" /><path
     fill="rgb(70,138,26)"
     stroke="none"
     d="M 31899,17409 C 30488,17253 29191,16830 27892,16103 27492,15879 26877,15481 26914,15469 27027,15431 30637,15881 32661,16185 34000,16386 36278,16770 36308,16800 36340,16833 35297,17133 34777,17241 34097,17382 33764,17415 32929,17424 32486,17429 32023,17422 31899,17409 Z"
     id="path1229" /><path
     fill="rgb(70,138,26)"
     stroke="none"
     d="M 8219,12810 C 8564,12692 9011,12370 9468,11912 10007,11373 10396,10869 11088,9818 11349,9422 11608,9031 11664,8949 11771,8794 11877,8705 12291,8421 12560,8236 13135,7685 13452,7306 L 13654,7067 13534,7006 C 12997,6733 12167,6639 10846,6702 9858,6749 9558,6811 9044,7074 8370,7419 8145,7724 8023,8459 7945,8927 7802,9994 7742,10552 7718,10777 7671,11158 7637,11398 7564,11922 7552,12522 7612,12665 7695,12861 7918,12914 8219,12810 Z"
     id="path1236" /><path
     fill="rgb(180,199,220)"
     stroke="none"
     d="M 50709,10460 C 50938,10345 51021,10127 50909,9942 50854,9852 50682,9710 50678,9752 50677,9765 50665,9747 50651,9712 50637,9677 50590,9632 50547,9614 50504,9595 50416,9535 50351,9480 50152,9310 49966,9185 49838,9135 49770,9109 49701,9069 49683,9047 49665,9024 49599,8997 49537,8986 49475,8975 49367,8955 49297,8942 49227,8929 49086,8917 48982,8916 L 48793,8915 48717,9077 C 48639,9242 48599,9503 48631,9631 48656,9734 48776,9863 48960,9988 49123,10099 49182,10125 49588,10266 49709,10308 49800,10350 49790,10360 49780,10370 49871,10410 49993,10449 50285,10543 50537,10547 50709,10460 Z"
     id="path1243" /><path
     fill="rgb(42,96,153)"
     stroke="none"
     d="M 49619,9938 C 49555,9933 49397,9874 49268,9808 49013,9678 48970,9617 49004,9435 49043,9222 49458,9113 49641,9267 49687,9306 49752,9338 49785,9338 49817,9338 49886,9367 49937,9402 50026,9462 50031,9474 50031,9639 50031,9848 50014,9902 49945,9902 49917,9902 49885,9915 49876,9931 49866,9946 49831,9957 49797,9954 49763,9951 49683,9944 49619,9938 Z"
     id="path1250" /><path
     fill="rgb(70,138,26)"
     stroke="none"
     d="M 34251,9994 C 34362,9339 34380,9106 34380,8364 34380,7598 34342,7159 34223,6558 33812,4482 32787,2760 31397,1809 L 31138,1632 31074,1758 C 30763,2371 30435,3399 30299,4190 30216,4674 30209,5697 30285,6134 30526,7508 31140,8643 32248,9761 L 32598,10114 32627,10029 C 32678,9878 32666,8583 32609,8139 32539,7592 32437,6993 32307,6362 32246,6069 32200,5824 32205,5819 32210,5814 32650,6833 33184,8082 33718,9332 34163,10354 34173,10354 34182,10354 34218,10192 34251,9994 Z"
     id="path1257" /></g></svg>
